<?xml version="1.0" standalone="no"?>
<!DOCTYPE svg PUBLIC "-//W3C//DTD SVG 1.1//EN" "http://www.w3.org/Graphics/SVG/1.1/DTD/svg11.dtd">
<svg version="1.1" xmlns="http://www.w3.org/2000/svg" viewBox="0 0 94.05779931747668 101.04943712418867" width="188.11559863495336" height="202.09887424837734"><!-- svg-source:excalidraw --><metadata></metadata><defs><style class="style-fonts">
      </style></defs><g stroke-linecap="round"><g transform="translate(32.29499030054035 10) rotate(0 14.733909358197991 40.524718562094336)"><path d="M0 0 C-2.83 0, -5.67 0, -11.15 0 M0 0 C-4.32 0, -8.63 0, -11.15 0 M-11.15 0 C-18.58 0, -22.29 3.72, -22.29 11.15 M-11.15 0 C-18.58 0, -22.29 3.72, -22.29 11.15 M-22.29 11.15 C-22.29 29.13, -22.29 47.1, -22.29 65.05 M-22.29 11.15 C-22.29 25.06, -22.29 38.97, -22.29 65.05 M-22.29 65.05 C-22.29 75.72, -16.96 81.05, -6.29 81.05 M-22.29 65.05 C-22.29 75.72, -16.96 81.05, -6.29 81.05 M-6.29 81.05 C8.86 81.05, 24.01 81.05, 51.76 81.05 M-6.29 81.05 C16.69 81.05, 39.67 81.05, 51.76 81.05" stroke="#e9ecef" stroke-width="4" fill="none"></path></g><g transform="translate(32.29499030054035 10) rotate(0 14.733909358197991 40.524718562094336)"><path d="M51.76 81.05 L38.17 87.39 L38.17 74.71 L51.76 81.05" stroke="none" stroke-width="0" fill="#e9ecef" fill-rule="evenodd"></path><path d="M51.76 81.05 C48.31 82.66, 44.85 84.27, 38.17 87.39 M51.76 81.05 C46.5 83.5, 41.23 85.96, 38.17 87.39 M38.17 87.39 C38.17 84.51, 38.17 81.63, 38.17 74.71 M38.17 87.39 C38.17 82.72, 38.17 78.05, 38.17 74.71 M38.17 74.71 C41.26 76.15, 44.36 77.6, 51.76 81.05 M38.17 74.71 C41.95 76.48, 45.74 78.24, 51.76 81.05 M51.76 81.05 C51.76 81.05, 51.76 81.05, 51.76 81.05 M51.76 81.05 C51.76 81.05, 51.76 81.05, 51.76 81.05" stroke="#e9ecef" stroke-width="4" fill="none"></path></g></g><mask></mask><g stroke-linecap="round" transform="translate(21.67163444131927 25.21651246271142) rotate(0 26.422643148272357 3.2427789318333566)"><path d="M1.62 0 C17.19 0, 32.76 0, 51.22 0 C52.3 0, 52.85 0.54, 52.85 1.62 C52.85 2.3, 52.85 2.97, 52.85 4.86 C52.85 5.95, 52.3 6.49, 51.22 6.49 C38.74 6.49, 26.25 6.49, 1.62 6.49 C0.54 6.49, 0 5.95, 0 4.86 C0 3.85, 0 2.84, 0 1.62 C0 0.54, 0.54 0, 1.62 0" stroke="none" stroke-width="0" fill="#ced4da"></path><path d="M1.62 0 C12.8 0, 23.99 0, 51.22 0 M1.62 0 C17.31 0, 32.99 0, 51.22 0 M51.22 0 C52.3 0, 52.85 0.54, 52.85 1.62 M51.22 0 C52.3 0, 52.85 0.54, 52.85 1.62 M52.85 1.62 C52.85 2.52, 52.85 3.41, 52.85 4.86 M52.85 1.62 C52.85 2.42, 52.85 3.22, 52.85 4.86 M52.85 4.86 C52.85 5.95, 52.3 6.49, 51.22 6.49 M52.85 4.86 C52.85 5.95, 52.3 6.49, 51.22 6.49 M51.22 6.49 C36.76 6.49, 22.3 6.49, 1.62 6.49 M51.22 6.49 C39.73 6.49, 28.23 6.49, 1.62 6.49 M1.62 6.49 C0.54 6.49, 0 5.95, 0 4.86 M1.62 6.49 C0.54 6.49, 0 5.95, 0 4.86 M0 4.86 C0 3.95, 0 3.05, 0 1.62 M0 4.86 C0 3.97, 0 3.07, 0 1.62 M0 1.62 C0 0.54, 0.54 0, 1.62 0 M0 1.62 C0 0.54, 0.54 0, 1.62 0" stroke="#ced4da" stroke-width="4" fill="none"></path></g><g stroke-linecap="round" transform="translate(21.67163444131927 46.39970183766786) rotate(0 26.422643148272357 3.2427789318333566)"><path d="M1.62 0 C14.28 0, 26.93 0, 51.22 0 C52.3 0, 52.85 0.54, 52.85 1.62 C52.85 2.43, 52.85 3.24, 52.85 4.86 C52.85 5.95, 52.3 6.49, 51.22 6.49 C36.12 6.49, 21.02 6.49, 1.62 6.49 C0.54 6.49, 0 5.95, 0 4.86 C0 4.09, 0 3.32, 0 1.62 C0 0.54, 0.54 0, 1.62 0" stroke="none" stroke-width="0" fill="#ced4da"></path><path d="M1.62 0 C11.65 0, 21.67 0, 51.22 0 M1.62 0 C11.79 0, 21.95 0, 51.22 0 M51.22 0 C52.3 0, 52.85 0.54, 52.85 1.62 M51.22 0 C52.3 0, 52.85 0.54, 52.85 1.62 M52.85 1.62 C52.85 2.5, 52.85 3.39, 52.85 4.86 M52.85 1.62 C52.85 2.37, 52.85 3.11, 52.85 4.86 M52.85 4.86 C52.85 5.95, 52.3 6.49, 51.22 6.49 M52.85 4.86 C52.85 5.95, 52.3 6.49, 51.22 6.49 M51.22 6.49 C34.46 6.49, 17.69 6.49, 1.62 6.49 M51.22 6.49 C34.91 6.49, 18.6 6.49, 1.62 6.49 M1.62 6.49 C0.54 6.49, 0 5.95, 0 4.86 M1.62 6.49 C0.54 6.49, 0 5.95, 0 4.86 M0 4.86 C0 3.61, 0 2.36, 0 1.62 M0 4.86 C0 3.99, 0 3.11, 0 1.62 M0 1.62 C0 0.54, 0.54 0, 1.62 0 M0 1.62 C0 0.54, 0.54 0, 1.62 0" stroke="#ced4da" stroke-width="4" fill="none"></path></g><g stroke-linecap="round" transform="translate(21.67163444131927 67.5828912126243) rotate(0 16.505522472113796 3.2427789318333566)"><path d="M1.62 0 C10.28 0, 18.94 0, 31.39 0 C32.47 0, 33.01 0.54, 33.01 1.62 C33.01 2.52, 33.01 3.42, 33.01 4.86 C33.01 5.95, 32.47 6.49, 31.39 6.49 C20.74 6.49, 10.09 6.49, 1.62 6.49 C0.54 6.49, 0 5.95, 0 4.86 C0 4.07, 0 3.28, 0 1.62 C0 0.54, 0.54 0, 1.62 0" stroke="none" stroke-width="0" fill="#ced4da"></path><path d="M1.62 0 C9.03 0, 16.43 0, 31.39 0 M1.62 0 C9.57 0, 17.52 0, 31.39 0 M31.39 0 C32.47 0, 33.01 0.54, 33.01 1.62 M31.39 0 C32.47 0, 33.01 0.54, 33.01 1.62 M33.01 1.62 C33.01 2.39, 33.01 3.16, 33.01 4.86 M33.01 1.62 C33.01 2.28, 33.01 2.94, 33.01 4.86 M33.01 4.86 C33.01 5.95, 32.47 6.49, 31.39 6.49 M33.01 4.86 C33.01 5.95, 32.47 6.49, 31.39 6.49 M31.39 6.49 C22.79 6.49, 14.2 6.49, 1.62 6.49 M31.39 6.49 C22.15 6.49, 12.92 6.49, 1.62 6.49 M1.62 6.49 C0.54 6.49, 0 5.95, 0 4.86 M1.62 6.49 C0.54 6.49, 0 5.95, 0 4.86 M0 4.86 C0 3.97, 0 3.07, 0 1.62 M0 4.86 C0 4.05, 0 3.23, 0 1.62 M0 1.62 C0 0.54, 0.54 0, 1.62 0 M0 1.62 C0 0.54, 0.54 0, 1.62 0" stroke="#ced4da" stroke-width="4" fill="none"></path></g></svg>
